<svg xmlns="http://www.w3.org/2000/svg" xmlns:xlink="http://www.w3.org/1999/xlink" width="146.25" height="39.955" viewBox="0 0 146.25 39.955"><defs><path id="a" d="M-2.21-3.96h150v45.927h-150z"/></defs><clipPath id="b"><use xlink:href="#a" overflow="visible"/></clipPath><g clip-path="url(#b)"><defs><path id="c" d="M-2.21-3.96h150v45.927h-150z"/></defs><clipPath id="d"><use xlink:href="#c" overflow="visible"/></clipPath><path clip-path="url(#d)" fill-rule="evenodd" clip-rule="evenodd" fill="#fff" d="M35.844 25.256c1.219.943 2.633 1.808 4.52 1.808 2.869 0 3.615-1.73 3.615-4.009v-19.964h3.105v16.269c0 1.416 0 2.948-.078 4.363-.158 3.773-2.084 5.973-6.524 5.973-3.065 0-5.306-1.258-6.209-2.24l1.571-2.2zm29.514-5.699c0-4.716-1.375-8.017-5.187-8.017-3.733 0-5.424 3.144-5.424 7.388 0 3.891.786 8.488 5.266 8.488 3.734.001 5.345-3.575 5.345-7.859m-4.951-10.415c2.712 0 8.056.865 8.056 9.746 0 7.664-3.812 10.887-8.724 10.887-4.992 0-8.056-3.38-8.056-10.454-.001-8.135 4.833-10.179 8.724-10.179m26.88 19.296v-18.745h-2.987v11.711c0 2.712-1.808 4.598-4.794 4.598-4.166 0-4.441-2.279-4.441-5.267v-11.042h-3.065v11.868c0 4.481 2.162 6.092 5.502 6.445-1.926 1.258-4.323 3.537-4.323 6.721 0 3.026 1.926 4.952 5.934 4.952 4.166 0 6.681-2.005 7.664-5.817.352-1.376.51-3.694.51-5.424m-7.86 8.882c3.576 0 4.834-3.105 4.834-7.388v-3.42c-4.716 1.965-8.135 4.088-8.135 7.821 0 1.926 1.14 2.987 3.301 2.987m20.514-28.178c-5.973 0-9.117 4.794-9.117 10.611 0 5.856 2.593 10.022 8.724 10.022 3.144 0 5.423-1.415 6.406-2.24l-1.179-2.004c-.747.55-2.398 1.808-5.031 1.808-4.165 0-5.738-3.379-5.895-6.603l1.022.04c3.812 0 10.807-.943 10.807-6.76.001-2.908-2.082-4.874-5.737-4.874m-.157 2.28c-4.205 0-5.816 3.969-5.934 7.074l.786.039c2.672 0 8.174-.629 8.174-4.166 0-1.847-1.257-2.947-3.026-2.947m13.007 17.803v-12.812c0-2.358 2.28-4.834 5.306-4.834 3.301 0 3.93 2.358 3.93 5.266v12.379h3.065v-13.322c0-4.48-2.201-6.76-6.248-6.76-2.555 0-4.834 1.179-6.327 3.38l-.354-2.829h-2.633l.196 2.947v16.584h3.065zm16.821-27.314v21.969c0 2.869.158 5.895 5.384 5.895 1.572 0 3.301-.511 4.441-1.297l-.904-2.043c-.668.393-1.65.943-2.986.943-1.848 0-2.869-.825-2.869-3.419v-11.633h5.581v-2.633h-5.581v-7.782h-3.066zm-113.872 29.38c8.613 0 15.595-6.982 15.595-15.595s-6.982-15.596-15.595-15.596-15.596 6.982-15.596 15.595 6.983 15.596 15.596 15.596m-2.777-23.945c0-.325.264-.589.589-.589h4.375c.325 0 .589.263.589.589v5.573h5.573c.325 0 .589.264.589.589v4.375c0 .325-.264.589-.589.589h-5.573v5.573c0 .325-.263.589-.589.589h-4.375c-.325 0-.589-.263-.589-.589v-5.573h-5.573c-.325 0-.589-.264-.589-.589v-4.375c0-.325.263-.589.589-.589h5.573v-5.573zm128.87-3.64c0 1.14.912 1.993 1.998 1.993 1.082 0 1.988-.853 1.988-1.993 0-1.118-.906-1.972-1.988-1.972-1.086 0-1.998.854-1.998 1.972m.36 0c0-.949.71-1.68 1.638-1.68.917 0 1.628.732 1.628 1.68 0 .97-.71 1.702-1.628 1.702-.927 0-1.638-.732-1.638-1.702m.864 1.166h.36v-.996h.382l.631.997h.387l-.663-1.023c.345-.037.609-.212.609-.631 0-.445-.26-.662-.811-.662h-.896v2.315zm.361-2.025h.477c.244 0 .509.048.509.355 0 .366-.292.382-.61.382h-.376v-.737z"/></g></svg>